<?xml version="1.0" encoding="UTF-8" standalone="no"?><!DOCTYPE svg PUBLIC "-//W3C//DTD SVG 1.1//EN" "http://www.w3.org/Graphics/SVG/1.1/DTD/svg11.dtd"><svg width="100%" height="100%" viewBox="0 0 165 165" version="1.1" xmlns="http://www.w3.org/2000/svg" xmlns:xlink="http://www.w3.org/1999/xlink" xml:space="preserve" xmlns:serif="http://www.serif.com/" style="fill-rule:evenodd;clip-rule:evenodd;"><g id="Group_5620"><g id="Group_5615"><g id="Group_5473"><g id="Ellipse_1774"><circle cx="82.3" cy="82.3" r="61.3" style="fill:none;stroke:#8f7c76;stroke-width:6px;"/></g><g id="Group_5469"><circle id="Ellipse_1772" cx="58.53" cy="68.885" r="7.7" style="fill:#8f7c76;"/><circle id="Ellipse_1773" cx="107.13" cy="68.885" r="7.7" style="fill:#8f7c76;"/></g></g><path d="M56.1,119.4c-0.2,0 -0.4,0 -0.6,-0.1c-1.6,-0.3 -2.7,-1.9 -2.3,-3.6c2.5,-11.7 11.7,-20.9 23.4,-23.4c16.4,-3.5 32.6,7 36.1,23.4c0.3,1.6 -0.7,3.2 -2.3,3.6c-1.6,0.3 -3.2,-0.7 -3.6,-2.3c-1.4,-6.4 -5.1,-11.8 -10.6,-15.4c-5.5,-3.5 -12,-4.8 -18.4,-3.4c-9.4,2 -16.8,9.4 -18.8,18.8c-0.3,1.4 -1.5,2.4 -2.9,2.4Z" style="fill:#8f7c76;fill-rule:nonzero;"/></g></g></svg>