<?xml version="1.0" encoding="utf-8"?>
<svg version="1.1" id="Layer_1" xmlns="http://www.w3.org/2000/svg" xmlns:xlink="http://www.w3.org/1999/xlink" x="0px" y="0px"
	 viewBox="0 0 165 165" style="enable-background:new 0 0 165 165;" xml:space="preserve">
<style type="text/css">
	.st0{fill:url(#Ellipse_1843_1_);}
	.st1{fill:#FFFFFF;}
	.st2{fill:none;stroke:#0363FA;stroke-width:6;}
	.st3{fill:#0363FA;}
</style>
<g id="Group_5620" transform="translate(15698 14884)">

		<radialGradient id="Ellipse_1843_1_" cx="-15911.1973" cy="-14382.6582" r="0.5" gradientTransform="matrix(165 0 0 -165 2609732 -2387940.25)" gradientUnits="userSpaceOnUse">
		<stop  offset="0" style="stop-color:#0363FA"/>
		<stop  offset="1" style="stop-color:#0363FA;stop-opacity:0"/>
	</radialGradient>
	<circle id="Ellipse_1843" class="st0" cx="-15615.5" cy="-14801.5" r="82.5"/>
	<g id="Group_5615">
		<g id="Group_5473" transform="translate(-15680 -14866)">
			<g id="Ellipse_1774" transform="translate(0 0)">
				<circle class="st1" cx="64.3" cy="64.3" r="64.3"/>
				<circle class="st2" cx="64.3" cy="64.3" r="61.3"/>
			</g>
			<g id="Group_5469" transform="translate(32.83 43.185)">
				<circle id="Ellipse_1772" class="st3" cx="7.7" cy="7.7" r="7.7"/>
				<circle id="Ellipse_1773" class="st3" cx="56.3" cy="7.7" r="7.7"/>
			</g>
		</g>
		<path class="st3" d="M-15641.9-14764.6c-0.2,0-0.4,0-0.6-0.1c-1.6-0.3-2.7-1.9-2.3-3.6c2.5-11.7,11.7-20.9,23.4-23.4
			c16.4-3.5,32.6,7,36.1,23.4c0.3,1.6-0.7,3.2-2.3,3.6c-1.6,0.3-3.2-0.7-3.6-2.3c-1.4-6.4-5.1-11.8-10.6-15.4
			c-5.5-3.5-12-4.8-18.4-3.4c-9.4,2-16.8,9.4-18.8,18.8C-15639.3-14765.6-15640.5-14764.6-15641.9-14764.6z"/>
	</g>
</g>
</svg>
