<?xml version="1.0" encoding="utf-8"?>
<svg version="1.1" id="Layer_1" xmlns="http://www.w3.org/2000/svg" xmlns:xlink="http://www.w3.org/1999/xlink" x="0px" y="0px"
	 viewBox="0 0 165 165" style="enable-background:new 0 0 165 165;" xml:space="preserve">
<style type="text/css">
	.st0{opacity:0.7;fill:url(#Ellipse_1780_1_);enable-background:new    ;}
	.st1{fill:#FFFFFF;}
	.st2{fill:none;stroke:#2BD4CF;stroke-width:6;}
	.st3{fill:#2BD4CF;}
</style>
<g id="Group_5616" transform="translate(15698 15593)">

		<radialGradient id="Ellipse_1780_1_" cx="-15911.1973" cy="-15091.6582" r="0.5" gradientTransform="matrix(165 0 0 -165 2609732 -2505634.25)" gradientUnits="userSpaceOnUse">
		<stop  offset="0" style="stop-color:#2BD4CF"/>
		<stop  offset="1" style="stop-color:#2BD4CF;stop-opacity:0"/>
	</radialGradient>
	<circle id="Ellipse_1780" class="st0" cx="-15615.5" cy="-15510.5" r="82.5"/>
	<g id="Group_5476" transform="translate(-17839 5749)">
		<g id="Ellipse_1778" transform="translate(2159 -21324)">
			<circle class="st1" cx="64.5" cy="64.5" r="64.5"/>
			<circle class="st2" cx="64.5" cy="64.5" r="61.5"/>
		</g>
		<g id="Group_4835" transform="translate(2191.25 -21280.74)">
			<circle id="Ellipse_1772" class="st3" cx="7.7" cy="7.7" r="7.7"/>
			<circle id="Ellipse_1773" class="st3" cx="56.8" cy="7.7" r="7.7"/>
		</g>
		<path class="st3" d="M2252.9-21246.9c-0.8-0.9-1.9-1.5-3.1-1.5c-17.5,0-50.6,0-51.7,0c-1.1,0-2.1,0.4-2.9,1.2
			c-1,1-1.4,2.3-1.1,3.7c2.5,11.7,11.7,20.9,23.4,23.4c2.1,0.5,4.3,0.7,6.4,0.7c5.8,0,11.5-1.7,16.5-4.9
			c6.8-4.4,11.5-11.2,13.2-19.2C2253.9-21244.8,2253.6-21246,2252.9-21246.9z"/>
	</g>
</g>
</svg>
