<?xml version="1.0" encoding="UTF-8" standalone="no"?><!DOCTYPE svg PUBLIC "-//W3C//DTD SVG 1.1//EN" "http://www.w3.org/Graphics/SVG/1.1/DTD/svg11.dtd"><svg width="100%" height="100%" viewBox="0 0 165 165" version="1.1" xmlns="http://www.w3.org/2000/svg" xmlns:xlink="http://www.w3.org/1999/xlink" xml:space="preserve" xmlns:serif="http://www.serif.com/" style="fill-rule:evenodd;clip-rule:evenodd;"><g id="Group_5616"><g id="Group_5476"><g id="Ellipse_1778"><circle cx="82.5" cy="82.5" r="61.5" style="fill:none;stroke:#8f7c76;stroke-width:6px;"/></g><g id="Group_4835"><circle id="Ellipse_1772" cx="57.95" cy="68.96" r="7.7" style="fill:#8f7c76;"/><circle id="Ellipse_1773" cx="107.05" cy="68.96" r="7.7" style="fill:#8f7c76;"/></g><path d="M111.9,95.1c-0.8,-0.9 -1.9,-1.5 -3.1,-1.5c-17.5,0 -50.6,0 -51.7,0c-1.1,0 -2.1,0.4 -2.9,1.2c-1,1 -1.4,2.3 -1.1,3.7c2.5,11.7 11.7,20.9 23.4,23.4c2.1,0.5 4.3,0.7 6.4,0.7c5.8,0 11.5,-1.7 16.5,-4.9c6.8,-4.4 11.5,-11.2 13.2,-19.2c0.3,-1.3 0,-2.5 -0.7,-3.4Z" style="fill:#8f7c76;fill-rule:nonzero;"/></g></g></svg>