<?xml version="1.0" encoding="UTF-8" standalone="no"?><!DOCTYPE svg PUBLIC "-//W3C//DTD SVG 1.1//EN" "http://www.w3.org/Graphics/SVG/1.1/DTD/svg11.dtd"><svg width="100%" height="100%" viewBox="0 0 165 165" version="1.1" xmlns="http://www.w3.org/2000/svg" xmlns:xlink="http://www.w3.org/1999/xlink" xml:space="preserve" xmlns:serif="http://www.serif.com/" style="fill-rule:evenodd;clip-rule:evenodd;stroke-linejoin:round;stroke-miterlimit:1.41421;"><g id="Group_5617"><g id="Group_5470"><g id="Path_4638"><path d="M82.501,24c-32.3,0 -58.5,26.2 -58.5,58.5c0,32.3 26.2,58.5 58.5,58.5c32.3,0 58.5,-26.2 58.5,-58.5c0,-32.3 -26.2,-58.5 -58.5,-58.5m0,-6c35.6,0 64.5,28.9 64.5,64.5c0,35.6 -28.9,64.5 -64.5,64.5c-35.6,0 -64.5,-28.9 -64.5,-64.5c0,-35.6 28.9,-64.5 64.5,-64.5Z" style="fill:#8f7c76;fill-rule:nonzero;"/></g><g id="Group_4834"><circle id="Ellipse_1772" cx="58.109" cy="68.989" r="7.7" style="fill:#8f7c76;"/><circle id="Ellipse_1773" cx="106.909" cy="68.989" r="7.7" style="fill:#8f7c76;"/></g><path d="M108.973,96.273c-0.6,-1.5 -2.1,-2.4 -3.7,-2.4c-17,0 -42.7,0 -44.5,0c-0.8,0 -1.6,0.2 -2.3,0.6c-1.6,1 -2.3,3 -1.6,4.8c0.3,0.8 0.8,1.4 1.3,1.8c0.2,0.2 0.4,0.4 0.7,0.7c6.8,6.5 15.4,9.7 24.1,9.7c9.2,0 18.4,-3.6 25.2,-10.8c1.1,-1.2 1.4,-3 0.8,-4.4Z" style="fill:#8f7c76;fill-rule:nonzero;"/></g></g></svg>