<?xml version="1.0" encoding="utf-8"?>
<svg version="1.1" id="Layer_1" xmlns="http://www.w3.org/2000/svg" xmlns:xlink="http://www.w3.org/1999/xlink" x="0px" y="0px"
	 viewBox="0 0 165 165" style="enable-background:new 0 0 165 165;" xml:space="preserve">
<style type="text/css">
	.st0{fill:url(#Ellipse_1780_1_);}
	.st1{fill:#FFFFFF;}
	.st2{fill:#0AB9DB;}
</style>
<g id="Group_5617" transform="translate(15698 15416)">

		<radialGradient id="Ellipse_1780_1_" cx="-15911.1973" cy="-14914.6582" r="0.5" gradientTransform="matrix(165 0 0 -165 2609732 -2476252.25)" gradientUnits="userSpaceOnUse">
		<stop  offset="0" style="stop-color:#0AB9DB"/>
		<stop  offset="1" style="stop-color:#0AB9DB;stop-opacity:0"/>
	</radialGradient>
	<circle id="Ellipse_1780" class="st0" cx="-15615.5" cy="-15333.5" r="82.5"/>
	<g id="Group_5470" transform="translate(-18003.727 5926.273)">
		<g id="Path_4638" transform="translate(2323.728 -21324.273)">
			<path class="st1" d="M64.5,126c-8.3,0-16.4-1.6-23.9-4.8c-3.6-1.5-7.2-3.4-10.4-5.7c-3.3-2.2-6.3-4.7-9.1-7.5
				c-2.8-2.8-5.3-5.8-7.5-9.1c-2.2-3.3-4.1-6.8-5.7-10.4C4.6,80.9,3,72.8,3,64.5s1.6-16.4,4.8-23.9c1.5-3.6,3.4-7.2,5.7-10.4
				c2.2-3.3,4.7-6.3,7.5-9.1c2.8-2.8,5.8-5.3,9.1-7.5c3.3-2.2,6.8-4.1,10.4-5.7C48.1,4.6,56.2,3,64.5,3s16.4,1.6,23.9,4.8
				c3.6,1.5,7.2,3.4,10.4,5.7c3.3,2.2,6.3,4.7,9.1,7.5c2.8,2.8,5.3,5.8,7.5,9.1c2.2,3.3,4.1,6.8,5.7,10.4c3.2,7.6,4.8,15.6,4.8,23.9
				s-1.6,16.4-4.8,23.9c-1.5,3.6-3.4,7.2-5.7,10.4c-2.2,3.3-4.7,6.3-7.5,9.1c-2.8,2.8-5.8,5.3-9.1,7.5c-3.3,2.2-6.8,4.1-10.4,5.7
				C80.9,124.4,72.8,126,64.5,126z"/>
			<path class="st2" d="M64.5,6C32.2,6,6,32.2,6,64.5S32.2,123,64.5,123S123,96.8,123,64.5S96.8,6,64.5,6 M64.5,0
				C100.1,0,129,28.9,129,64.5S100.1,129,64.5,129S0,100.1,0,64.5S28.9,0,64.5,0z"/>
		</g>
		<g id="Group_4834" transform="translate(2356.136 -21280.984)">
			<circle id="Ellipse_1772" class="st2" cx="7.7" cy="7.7" r="7.7"/>
			<circle id="Ellipse_1773" class="st2" cx="56.5" cy="7.7" r="7.7"/>
		</g>
		<path class="st2" d="M2414.7-21246c-0.6-1.5-2.1-2.4-3.7-2.4c0,0,0,0,0,0c-17,0-42.7,0-44.5,0c-0.8,0-1.6,0.2-2.3,0.6
			c-1.6,1-2.3,3-1.6,4.8c0.3,0.8,0.8,1.4,1.3,1.8c0.2,0.2,0.4,0.4,0.7,0.7c6.8,6.5,15.4,9.7,24.1,9.7c9.2,0,18.4-3.6,25.2-10.8
			C2415-21242.8,2415.3-21244.6,2414.7-21246z"/>
	</g>
</g>
</svg>
